<mxfile host="app.diagrams.net" modified="2022-04-19T17:34:17.426Z" agent="5.0 (Macintosh; Intel Mac OS X 10_15_7) AppleWebKit/537.36 (KHTML, like Gecko) Chrome/100.0.4896.75 Safari/537.36" etag="bT2o_g0pIxuFc-WOvrxV" version="17.4.3" type="github">
  <diagram id="y2ydh7OSWDNi_J6YgmQI" name="Page-1">
    <mxGraphModel dx="946" dy="557" grid="1" gridSize="10" guides="1" tooltips="1" connect="1" arrows="1" fold="1" page="1" pageScale="1" pageWidth="827" pageHeight="1169" math="0" shadow="0">
      <root>
        <mxCell id="0" />
        <mxCell id="1" parent="0" />
        <mxCell id="lCpKha7q0UIiGWwki8Dk-1" value="部门" style="rounded=0;whiteSpace=wrap;html=1;" parent="1" vertex="1">
          <mxGeometry x="400" y="240" width="120" height="60" as="geometry" />
        </mxCell>
        <mxCell id="lCpKha7q0UIiGWwki8Dk-2" value="&lt;u&gt;ID&lt;/u&gt;" style="ellipse;whiteSpace=wrap;html=1;" parent="1" vertex="1">
          <mxGeometry x="440" y="130" width="120" height="80" as="geometry" />
        </mxCell>
        <mxCell id="lCpKha7q0UIiGWwki8Dk-3" value="部门名" style="ellipse;whiteSpace=wrap;html=1;" parent="1" vertex="1">
          <mxGeometry x="250" y="230" width="120" height="80" as="geometry" />
        </mxCell>
        <mxCell id="lCpKha7q0UIiGWwki8Dk-4" value="所属社团" style="ellipse;whiteSpace=wrap;html=1;" parent="1" vertex="1">
          <mxGeometry x="560" y="320" width="120" height="80" as="geometry" />
        </mxCell>
        <mxCell id="lCpKha7q0UIiGWwki8Dk-6" value="" style="endArrow=none;html=1;rounded=0;" parent="1" source="lCpKha7q0UIiGWwki8Dk-2" target="lCpKha7q0UIiGWwki8Dk-1" edge="1">
          <mxGeometry width="50" height="50" relative="1" as="geometry">
            <mxPoint x="390" y="340" as="sourcePoint" />
            <mxPoint x="440" y="290" as="targetPoint" />
          </mxGeometry>
        </mxCell>
        <mxCell id="lCpKha7q0UIiGWwki8Dk-7" value="" style="endArrow=none;html=1;rounded=0;" parent="1" source="lCpKha7q0UIiGWwki8Dk-4" target="lCpKha7q0UIiGWwki8Dk-1" edge="1">
          <mxGeometry width="50" height="50" relative="1" as="geometry">
            <mxPoint x="474" y="370" as="sourcePoint" />
            <mxPoint x="440" y="290" as="targetPoint" />
          </mxGeometry>
        </mxCell>
        <mxCell id="lCpKha7q0UIiGWwki8Dk-8" value="" style="endArrow=none;html=1;rounded=0;" parent="1" source="lCpKha7q0UIiGWwki8Dk-3" target="lCpKha7q0UIiGWwki8Dk-1" edge="1">
          <mxGeometry width="50" height="50" relative="1" as="geometry">
            <mxPoint x="390" y="340" as="sourcePoint" />
            <mxPoint x="440" y="290" as="targetPoint" />
          </mxGeometry>
        </mxCell>
        <mxCell id="Hn_2ZddEZw-7mXqS6jgl-1" value="部门简介" style="ellipse;whiteSpace=wrap;html=1;" vertex="1" parent="1">
          <mxGeometry x="570" y="190" width="120" height="80" as="geometry" />
        </mxCell>
        <mxCell id="Hn_2ZddEZw-7mXqS6jgl-2" value="部门负责人" style="ellipse;whiteSpace=wrap;html=1;" vertex="1" parent="1">
          <mxGeometry x="420" y="380" width="120" height="80" as="geometry" />
        </mxCell>
        <mxCell id="Hn_2ZddEZw-7mXqS6jgl-3" value="部门状态" style="ellipse;whiteSpace=wrap;html=1;" vertex="1" parent="1">
          <mxGeometry x="280" y="340" width="120" height="80" as="geometry" />
        </mxCell>
        <mxCell id="Hn_2ZddEZw-7mXqS6jgl-4" value="" style="endArrow=none;html=1;rounded=0;" edge="1" parent="1" source="Hn_2ZddEZw-7mXqS6jgl-3" target="lCpKha7q0UIiGWwki8Dk-1">
          <mxGeometry width="50" height="50" relative="1" as="geometry">
            <mxPoint x="390" y="310" as="sourcePoint" />
            <mxPoint x="440" y="260" as="targetPoint" />
          </mxGeometry>
        </mxCell>
        <mxCell id="Hn_2ZddEZw-7mXqS6jgl-5" value="" style="endArrow=none;html=1;rounded=0;" edge="1" parent="1" source="Hn_2ZddEZw-7mXqS6jgl-2" target="lCpKha7q0UIiGWwki8Dk-1">
          <mxGeometry width="50" height="50" relative="1" as="geometry">
            <mxPoint x="390" y="310" as="sourcePoint" />
            <mxPoint x="440" y="260" as="targetPoint" />
          </mxGeometry>
        </mxCell>
        <mxCell id="Hn_2ZddEZw-7mXqS6jgl-6" value="" style="endArrow=none;html=1;rounded=0;" edge="1" parent="1" source="lCpKha7q0UIiGWwki8Dk-1" target="Hn_2ZddEZw-7mXqS6jgl-1">
          <mxGeometry width="50" height="50" relative="1" as="geometry">
            <mxPoint x="480" y="270" as="sourcePoint" />
            <mxPoint x="440" y="260" as="targetPoint" />
          </mxGeometry>
        </mxCell>
      </root>
    </mxGraphModel>
  </diagram>
</mxfile>
